<?xml version="1.0" standalone="no"?>
<!DOCTYPE svg PUBLIC "-//W3C//DTD SVG 20010904//EN"
 "http://www.w3.org/TR/2001/REC-SVG-20010904/DTD/svg10.dtd">
<svg version="1.0" xmlns="http://www.w3.org/2000/svg"
 width="1080.000000pt" height="1080.000000pt" viewBox="0 0 1080.000000 1080.000000"
 preserveAspectRatio="xMidYMid meet">

<g transform="translate(0.000000,1080.000000) scale(0.100000,-0.100000)"
fill="#000000" stroke="none">
<path d="M5075 7485 c-478 -50 -914 -228 -1284 -523 -114 -91 -304 -280 -381
-380 l-55 -71 -1490 -3 -1490 -3 -3 -1442 -2 -1443 1483 0 1484 0 76 -98 c252
-323 652 -613 1052 -761 282 -104 549 -151 860 -151 555 0 1090 188 1525 537
116 93 280 258 373 376 l78 97 1374 0 1375 0 0 1445 0 1445 -1384 0 -1384 0
-75 93 c-87 107 -257 274 -372 366 -329 264 -746 443 -1175 505 -155 22 -430
28 -585 11z m615 -105 c491 -81 914 -293 1269 -635 738 -713 930 -1817 475
-2736 -425 -858 -1313 -1373 -2259 -1310 -339 22 -625 100 -918 248 -741 376
-1223 1099 -1289 1933 -18 229 9 538 67 760 209 802 829 1443 1620 1674 148
43 295 70 490 90 99 10 424 -4 545 -24z"/>
<path d="M6336 5888 c-65 -396 -133 -717 -212 -995 -19 -68 -34 -129 -34 -136
0 -9 12 -11 39 -9 l40 4 31 86 c38 106 94 293 115 390 16 69 18 73 43 70 23
-3 31 -17 85 -163 124 -337 181 -570 157 -648 l-12 -40 -271 6 c-185 5 -273
10 -278 18 -3 6 -56 24 -115 40 -93 24 -129 28 -242 29 -126 0 -135 -1 -190
-29 -55 -27 -61 -28 -164 -23 l-107 5 3 255 c2 144 8 258 13 259 5 2 7 18 5
36 -3 28 1 35 22 45 21 9 34 7 81 -13 31 -14 67 -25 80 -25 32 0 56 37 62 94
4 32 10 46 24 49 14 4 19 14 19 40 0 36 12 47 51 47 16 0 19 7 19 41 0 22 -5
60 -11 85 -10 37 -9 51 4 82 9 20 19 78 23 127 3 50 11 96 17 103 14 18 -17
49 -110 105 -140 83 -298 101 -409 44 -128 -65 -206 -241 -208 -469 l-1 -108
-65 0 c-59 0 -76 -5 -155 -46 -244 -125 -389 -266 -521 -505 -52 -93 -124
-253 -124 -273 0 -15 237 -20 1605 -37 435 -5 822 -12 861 -15 65 -6 72 -5
100 19 28 24 29 28 28 109 0 55 -10 120 -29 193 -27 109 -122 396 -174 523
-24 62 -29 67 -60 70 -29 3 -32 6 -27 26 12 48 56 335 66 426 15 146 16 140
-30 140 -36 0 -39 -2 -44 -32z"/>
<path d="M4865 4368 c-3 -8 -4 -70 -3 -139 3 -120 4 -124 26 -127 21 -3 22 0
22 62 l0 66 43 0 c33 0 49 6 65 23 28 29 29 78 2 102 -26 24 -147 34 -155 13z
m103 -24 c17 -5 22 -14 22 -40 0 -28 -5 -36 -26 -44 -48 -19 -54 -14 -54 40 0
53 6 58 58 44z"/>
<path d="M3470 4240 c0 -109 2 -130 15 -130 13 0 15 21 15 130 0 109 -2 130
-15 130 -13 0 -15 -21 -15 -130z"/>
<path d="M3820 4320 c-20 -20 -26 -56 -12 -76 4 -6 26 -21 50 -33 36 -19 43
-26 40 -48 -4 -37 -30 -50 -68 -36 -24 9 -30 9 -27 0 2 -7 21 -13 41 -15 52
-4 78 20 74 67 -3 31 -9 39 -46 56 -43 20 -57 40 -46 69 7 19 54 22 72 4 9 -9
12 -8 12 4 0 32 -60 38 -90 8z"/>
<path d="M4360 4228 c0 -72 4 -118 10 -118 6 0 10 34 10 83 l1 82 78 -84 78
-84 6 54 c4 30 7 82 7 117 0 51 -3 62 -16 62 -14 0 -16 -12 -12 -91 l4 -92
-40 49 c-23 27 -60 69 -83 94 l-43 45 0 -117z"/>
<path d="M4580 4325 c0 -11 11 -15 36 -15 l35 0 -1 -87 c-2 -118 -3 -113 20
-113 19 0 20 7 20 100 l0 100 30 0 c20 0 30 5 30 15 0 12 -16 15 -85 15 -69 0
-85 -3 -85 -15z"/>
<path d="M5070 4335 c-1 -3 -1 -56 -1 -117 0 -103 1 -113 18 -113 15 0 17 7
15 38 -5 67 9 71 53 12 37 -50 62 -65 78 -49 3 4 -14 30 -39 59 -42 50 -44 54
-24 60 11 4 27 17 36 29 19 30 5 71 -28 79 -28 8 -108 9 -108 2z m100 -40 c10
-13 10 -19 -5 -35 -10 -11 -29 -20 -42 -20 -20 0 -23 5 -23 35 0 32 3 35 29
35 16 0 34 -7 41 -15z"/>
<path d="M5295 4318 c-64 -50 -68 -136 -9 -188 27 -23 44 -30 77 -30 47 0 99
27 117 60 15 29 15 103 -1 128 -33 53 -133 70 -184 30z m130 -23 c37 -36 35
-106 -4 -145 -23 -24 -34 -28 -62 -24 -52 8 -64 26 -64 95 0 52 4 64 24 80 32
26 77 24 106 -6z"/>
<path d="M5520 4220 c0 -113 1 -120 20 -120 18 0 20 7 20 55 l0 55 40 0 c29 0
40 4 40 15 0 11 -11 15 -40 15 -39 0 -40 1 -40 35 0 35 0 35 45 35 33 0 45 4
45 15 0 12 -14 15 -65 15 l-65 0 0 -120z"/>
<path d="M5683 4274 c4 -38 7 -90 7 -116 l0 -48 55 0 c30 0 55 5 55 10 0 6
-20 10 -45 10 l-45 0 0 45 0 45 40 0 c22 0 40 5 40 10 0 6 -18 10 -41 10 l-40
0 3 38 c3 36 4 37 48 43 35 5 38 6 14 7 -17 1 -46 5 -64 9 l-33 6 6 -69z"/>
<path d="M5862 4323 c-12 -10 -22 -25 -23 -33 -4 -39 3 -51 46 -72 49 -24 67
-57 45 -83 -15 -18 -61 -20 -78 -3 -6 6 -15 9 -19 5 -14 -15 16 -28 58 -25 34
2 46 8 58 29 23 42 8 77 -45 99 -40 18 -45 23 -42 47 2 22 9 29 31 31 16 2 35
-2 43 -9 11 -9 14 -8 14 4 0 30 -57 36 -88 10z"/>
<path d="M6022 4324 c-15 -11 -22 -25 -22 -50 0 -31 5 -36 45 -56 49 -24 62
-46 45 -78 -11 -21 -64 -28 -75 -10 -4 6 -11 7 -17 4 -18 -11 9 -26 48 -26 27
0 43 6 56 22 35 44 21 85 -39 111 -39 17 -44 22 -41 46 2 22 9 29 31 31 16 2
35 -2 43 -9 11 -9 14 -8 14 4 0 8 -10 17 -22 21 -34 9 -41 8 -66 -10z"/>
<path d="M6303 4325 c-74 -32 -85 -144 -19 -197 27 -23 113 -24 144 -2 73 51
65 167 -13 200 -42 17 -71 17 -112 -1z m107 -15 c11 -6 24 -28 31 -49 27 -90
-44 -166 -126 -135 -22 9 -45 57 -45 94 0 35 23 86 42 93 23 9 79 7 98 -3z"/>
<path d="M6987 4333 c-4 -3 -7 -55 -7 -115 l0 -108 60 0 c33 0 60 4 60 10 0 6
-20 10 -45 10 l-45 0 0 105 c0 96 -5 117 -23 98z"/>
<path d="M7150 4320 c-39 -39 -23 -78 48 -114 27 -14 33 -22 30 -43 -4 -37
-30 -50 -68 -36 -24 9 -30 9 -27 0 2 -7 21 -13 41 -15 52 -4 78 20 74 67 -2
30 -9 39 -37 53 -49 25 -64 42 -56 67 7 24 53 29 73 9 9 -9 12 -8 12 4 0 32
-60 38 -90 8z"/>
<path d="M3582 4220 c2 -101 2 -105 5 -32 2 45 7 82 10 82 4 0 42 -37 84 -82
l78 -83 1 113 c0 68 -4 112 -10 112 -6 0 -10 -34 -10 -82 l-1 -83 -79 85 -80
85 2 -115z"/>
<path d="M3980 4321 l35 -6 3 -102 c2 -73 6 -103 15 -103 9 0 12 29 12 102 l0
103 35 6 c22 4 3 6 -50 6 -53 0 -72 -2 -50 -6z"/>
<path d="M4204 4294 c-9 -21 -31 -72 -49 -111 -19 -40 -30 -73 -25 -73 5 0 18
21 29 46 20 43 22 45 58 42 34 -3 40 -8 57 -45 11 -24 26 -43 34 -43 8 0 12 6
9 13 -26 62 -90 203 -93 206 -2 2 -11 -13 -20 -35z m34 -54 c11 -29 10 -30
-19 -30 -32 0 -34 5 -19 45 12 31 24 26 38 -15z"/>
<path d="M6170 4220 c0 -91 3 -110 15 -110 12 0 15 19 15 110 0 91 -3 110 -15
110 -12 0 -15 -19 -15 -110z"/>
<path d="M6520 4220 c0 -67 4 -110 10 -110 6 0 10 34 10 83 l1 82 78 -82 c42
-46 80 -83 84 -83 3 0 6 50 6 110 0 64 -4 110 -9 110 -6 0 -10 -35 -10 -80 0
-44 -3 -80 -7 -80 -5 1 -39 36 -78 80 -38 43 -73 79 -77 79 -5 1 -8 -48 -8
-109z"/>
<path d="M6801 4233 c-57 -129 -55 -123 -44 -123 6 0 16 18 23 40 9 27 21 42
34 45 42 10 61 -1 81 -43 11 -23 26 -42 33 -42 9 0 12 6 8 15 -20 52 -80 191
-86 198 -3 4 -26 -37 -49 -90z m52 30 c2 -10 8 -26 12 -35 6 -15 2 -18 -24
-18 -17 0 -31 2 -31 4 0 1 5 17 11 35 12 35 24 40 32 14z"/>
</g>
</svg>
